<svg xmlns="http://www.w3.org/2000/svg" width="184" height="32.827" viewBox="0 0 184 32.827">
    <g id="Group_75" data-name="Group 75" transform="translate(-92 -47)">
        <g id="Group_1" data-name="Group 1" transform="translate(92 47)">
            <path id="Path_1" data-name="Path 1" d="M2659.789,2998.948h-4.9v-7h4.9a9.416,9.416,0,0,0,0-18.824h-4.9v5.959h5.866v7h-12.668v-19.962h11.706a16.42,16.42,0,0,1,0,32.827Z" transform="translate(-2648.083 -2966.122)" fill="#125cfa"/>
        </g>
        <path id="Path_1-2" data-name="Path 1" d="M2775.747,3011.906a3.718,3.718,0,0,1,.021,5.236,3.95,3.95,0,0,1-5.38.021,3.552,3.552,0,0,1-1.068-2.649,3.682,3.682,0,0,1,3.737-3.7A3.653,3.653,0,0,1,2775.747,3011.906Z" transform="translate(-2646.028 -2952.286)" fill="#125cfa"/>
        <path id="Path_2" data-name="Path 2" d="M2833.471,2998.56h-14.359a5.081,5.081,0,0,0,1.522,2.77,3.9,3.9,0,0,0,2.693,1.014,4.386,4.386,0,0,0,4.175-2.263l5.541,1.132a9.338,9.338,0,0,1-3.766,4.584,11.167,11.167,0,0,1-5.95,1.541,10.154,10.154,0,0,1-7.336-2.907,10.769,10.769,0,0,1,0-14.925,10.166,10.166,0,0,1,7.374-2.927,9.77,9.77,0,0,1,7.141,2.849,10.363,10.363,0,0,1,2.966,7.531Zm-12.642-6.087a4.1,4.1,0,0,0-1.6,2.263h8.077a4.153,4.153,0,0,0-1.482-2.3,4.02,4.02,0,0,0-2.459-.781A4.333,4.333,0,0,0,2820.828,2992.472Z" transform="translate(-2678.429 -2934.313)" fill="#3b4757"/>
        <path id="Path_3" data-name="Path 3" d="M2922.538,2988.82a8.33,8.33,0,0,1,2.088,5.911v12.018h-6.2v-10.691a4.089,4.089,0,0,0-.937-2.79,3.061,3.061,0,0,0-2.419-1.073,3.6,3.6,0,0,0-2.985,1.346,6.546,6.546,0,0,0-1.073,4.116v9.092h-6.243v-19.588h6.243v1.873a7.931,7.931,0,0,1,6.009-2.458A7.186,7.186,0,0,1,2922.538,2988.82Z" transform="translate(-2746.523 -2934.309)" fill="#3b4757"/>
        <path id="Path_4" data-name="Path 4" d="M3014.532,3004.8a8.412,8.412,0,0,1-3.024,6.887,12.132,12.132,0,0,1-7.941,2.478q-6.984,0-9.833-4.721l5.19-2.81a7.518,7.518,0,0,0,2.126,1.893,5.254,5.254,0,0,0,2.478.527,4.989,4.989,0,0,0,3.531-1.248,4.553,4.553,0,0,0,1.346-3.512v-.547a8.749,8.749,0,0,1-5.892,1.873,9.127,9.127,0,0,1-6.672-2.75,9.264,9.264,0,0,1-2.771-6.848,9.043,9.043,0,0,1,2.771-6.731,9.2,9.2,0,0,1,6.672-2.711,8.748,8.748,0,0,1,5.892,1.873v-1.288h6.126Zm-7.453-5.56a4.262,4.262,0,0,0,1.327-3.219,4.215,4.215,0,0,0-1.327-3.18,4.512,4.512,0,0,0-3.238-1.268,4.686,4.686,0,0,0-3.375,1.249,4.57,4.57,0,0,0,.02,6.419,4.661,4.661,0,0,0,3.356,1.268A4.512,4.512,0,0,0,3007.08,2999.238Z" transform="translate(-2812.042 -2934.336)" fill="#3b4757"/>
        <path id="Path_5" data-name="Path 5" d="M3110.666,3006.749h-6.243v-1.561a8.745,8.745,0,0,1-6.087,2.146,9.035,9.035,0,0,1-6.77-2.907,11.375,11.375,0,0,1,0-14.925,9.006,9.006,0,0,1,6.77-2.926,8.743,8.743,0,0,1,6.087,2.146v-1.561h6.243ZM3103,3000.6a5.36,5.36,0,0,0,0-7.277,4.582,4.582,0,0,0-3.375-1.444,4.435,4.435,0,0,0-3.395,1.425,5.706,5.706,0,0,0,0,7.315,4.465,4.465,0,0,0,3.395,1.405A4.613,4.613,0,0,0,3103,3000.6Z" transform="translate(-2883.048 -2934.31)" fill="#3b4757"/>
        <path id="Path_6" data-name="Path 6" d="M3207.451,3004.8a8.412,8.412,0,0,1-3.024,6.887,12.132,12.132,0,0,1-7.941,2.478q-6.984,0-9.833-4.721l5.189-2.81a7.519,7.519,0,0,0,2.127,1.893,5.252,5.252,0,0,0,2.478.527,4.988,4.988,0,0,0,3.531-1.248,4.553,4.553,0,0,0,1.346-3.512v-.547a8.749,8.749,0,0,1-5.892,1.873,9.126,9.126,0,0,1-6.672-2.75,9.262,9.262,0,0,1-2.771-6.848,9.042,9.042,0,0,1,2.771-6.731,9.2,9.2,0,0,1,6.672-2.711,8.748,8.748,0,0,1,5.892,1.873v-1.288h6.126Zm-7.453-5.56a4.263,4.263,0,0,0,1.327-3.219,4.216,4.216,0,0,0-1.327-3.18,4.513,4.513,0,0,0-3.239-1.268,4.687,4.687,0,0,0-3.375,1.249,4.57,4.57,0,0,0,.02,6.419,4.661,4.661,0,0,0,3.356,1.268A4.512,4.512,0,0,0,3200,2999.238Z" transform="translate(-2955.213 -2934.336)" fill="#3b4757"/>
        <path id="Path_7" data-name="Path 7" d="M3302.179,2998.555h-14.359a5.076,5.076,0,0,0,1.522,2.77,3.9,3.9,0,0,0,2.692,1.015,4.386,4.386,0,0,0,4.175-2.263l5.541,1.132a9.333,9.333,0,0,1-3.765,4.584,11.171,11.171,0,0,1-5.95,1.542,10.155,10.155,0,0,1-7.336-2.907,10.771,10.771,0,0,1,0-14.925,10.166,10.166,0,0,1,7.375-2.926,9.769,9.769,0,0,1,7.141,2.848,10.364,10.364,0,0,1,2.966,7.531Zm-12.643-6.088a4.1,4.1,0,0,0-1.6,2.263h8.077a4.158,4.158,0,0,0-1.483-2.3,4.021,4.021,0,0,0-2.458-.781A4.338,4.338,0,0,0,3289.536,2992.468Z" transform="translate(-3026.179 -2934.31)" fill="#3b4757"/>
    </g>
</svg>
